Só Dez Por Cento é Mentira AKA Only Ten Percent is a Lie

A portrait of the Brazilian poet Manoel de Barros, 91 years old, his life, works, aesthetic principles and personality.

Director: Pedro Cezar
Country: Brazil
Language: Portuguese
Subtitles inside MKV: English, French, Portuguese

Screenshots:
 
http://i1238.photobucket.com/albums/ff491/pamis2046/SoacuteDez01_zpscf0296ad.jpg
 
http://i1238.photobucket.com/albums/ff491/pamis2046/SoacuteDez02_zpsde35f479.jpg
 
http://i1238.photobucket.com/albums/ff491/pamis2046/SoacuteDez03_zps615fff78.jpg
 
http://i1238.photobucket.com/albums/ff491/pamis2046/SoacuteDez04_zpsa5d8f8d6.jpg
 
http://i1238.photobucket.com/albums/ff491/pamis2046/SoacuteDez05_zps8a2c580d.jpg
 
http://i1238.photobucket.com/albums/ff491/pamis2046/SoacuteDez06_zpsf75766b3.jpg

Format                                   : Matroska
Format version                           : Version 2
File size                                : 1.25 GiB
Duration                                 : 1h 21mn
Overall bit rate                         : 2 198 Kbps
Writing application                      : HandBrake 0.9.8
Writing library                          : libmkv 0.6.5

Vídeo
ID                                       : 1
Format                                   : AVC
Format/Info                              : Advanced Video Codec
Format profile                           : High@L3.1
Format settings, CABAC                   : Sim
Format settings, ReFrames                : 9 quadros
Codec ID                                 : V_MPEG4/ISO/AVC
Duration                                 : 1h 21mn
Bit rate                                 : 2 000 Kbps
Width                                    : 720 pixels
Height                                   : 480 pixels
Display aspect ratio                     : 16:9
Frame rate mode                          : TConstante
Frame rate                               : 29.970 fps
Standard                                 : NTSC
Color space                              : YUV
Chroma subsampling                       : 4:2:0
Bit depth                                : 8 bits
Scan type                                : Progressivo
Bits/(Pixel*Frame)                       : 0.193
Stream size                              : 1.11 GiB (89%)
Writing library                          : x264 core 120


Encoding settings                        : cabac=1 / ref=9 / deblock=1:-2:-2 / analyse=0x3:0x133 / me=umh / subme=11 / psy=1 / psy_rd=1.00:0.00 / mixed_ref=1 / me_range=24 / chroma_me=1 / trellis=2 / 8x8dct=1 / cqm=0 / deadzone=21,11 / fast_pskip=0 / chroma_qp_offset=-2 / threads=6 / sliced_threads=0 / nr=0 / decimate=1 / interlaced=0 / bluray_compat=0 / constrained_intra=0 / bframes=6 / b_pyramid=2 / b_adapt=2 / b_bias=0 / direct=3 / weightb=1 / open_gop=0 / weightp=2 / keyint=300 / keyint_min=30 / scenecut=40 / intra_refresh=0 / rc_lookahead=40 / rc=2pass / mbtree=1 / bitrate=2000 / ratetol=1.0 / qcomp=0.60 / qpmin=3 / qpmax=69 / qpstep=4 / cplxblur=20.0 / qblur=0.5 / ip_ratio=1.40 / aq=1:1.00


Default                                  : Sim
Forced                                   : Não
colour_primaries                         : BT.601 NTSC
transfer_characteristics                 : BT.709
matrix_coefficients                      : BT.601

Áudio
ID                                       : 2
Format                                   : AC-3
Format/Info                              : Audio Coding 3
Mode extension                           : CM (complete main)
Format settings, Endianness              : Big
Codec ID                                 : A_AC3
Duration                                 : 1h 21mn
Bit rate mode                            : Constante
Bit rate                                 : 192 Kbps
Channel(s)                               : 2 canais
Channel positions                        : Front: L R
Sampling rate                            : 48.0 KHz
Bit depth                                : 16 bits
Stream size                              : 112 MiB (9%)
Language                                 : Português
Default                                  : Sim
Forced                                   : Não